<?xml version="1.0" encoding="utf-8"?>
<!-- Generator: Adobe Illustrator 16.0.0, SVG Export Plug-In . SVG Version: 6.00 Build 0)  -->
<!DOCTYPE svg PUBLIC "-//W3C//DTD SVG 1.1//EN" "http://www.w3.org/Graphics/SVG/1.1/DTD/svg11.dtd">
<svg version="1.1" id="Layer_1" xmlns="http://www.w3.org/2000/svg" xmlns:xlink="http://www.w3.org/1999/xlink" x="0px" y="0px"
	 width="72px" height="53px" viewBox="0 0 72 53" enable-background="new 0 0 72 53" xml:space="preserve">
<path fill="white" d="M71.727,20.97L63.256,1.891C62.762,0.778,61.647,0,60.353,0c-1.512,0-2.775,1.058-3.098,2.474l-8.367,36.858
	L37.88,12.57c-0.476-1.155-1.613-1.971-2.939-1.971c-1.311,0-2.436,0.796-2.92,1.931L22.014,35.906l-5.406-10.825
	c-0.521-1.044-1.599-1.761-2.843-1.761c-0.98,0-1.859,0.445-2.44,1.146L0.736,37.186C0.277,37.738,0,38.446,0,39.221
	c0,1.756,1.423,3.18,3.176,3.18c0.98,0,1.859-0.444,2.44-1.145l7.478-8.983l6.297,12.608c0.521,1.044,1.599,1.76,2.844,1.76
	c1.311,0,2.436-0.796,2.92-1.93l9.726-22.721l11.944,29.039C47.302,52.187,48.439,53,49.765,53c1.512,0,2.775-1.058,3.098-2.472
	l8.471-37.312L65.92,23.55c0.494,1.114,1.609,1.891,2.903,1.891c1.753,0,3.177-1.425,3.177-3.181
	C72,21.802,71.903,21.364,71.727,20.97z"/>
</svg>
