<?xml version="1.0" encoding="utf-8"?>
<!-- Generator: Adobe Illustrator 16.0.0, SVG Export Plug-In . SVG Version: 6.00 Build 0)  -->
<!DOCTYPE svg PUBLIC "-//W3C//DTD SVG 1.1//EN" "http://www.w3.org/Graphics/SVG/1.1/DTD/svg11.dtd">
<svg version="1.1" id="Layer_1" xmlns="http://www.w3.org/2000/svg" xmlns:xlink="http://www.w3.org/1999/xlink" x="0px" y="0px"
	 width="47px" height="53.021px" viewBox="0 0 47 53.021" enable-background="new 0 0 47 53.021" xml:space="preserve">
<path fill-rule="evenodd" clip-rule="evenodd" fill="#ffffff" d="M46.189,39.514c-1.367,2.348-4.18,3.552-8.063,3.552
	c-1.536,0-3.249-0.2-5.096-0.58c-2.126,6.727-5.531,10.536-9.529,10.536c-3.997,0-7.401-3.809-9.527-10.532
	c-1.897,0.396-3.639,0.584-5.193,0.584c-3.845,0-6.588-1.186-7.966-3.557c-1.926-3.319-0.39-7.986,4.195-13.006
	c-4.583-5.021-6.121-9.686-4.197-13.004c1.907-3.276,6.643-4.31,13.158-2.968C16.098,3.81,19.502,0,23.5,0s7.403,3.81,9.529,10.537
	c2.057-0.429,3.924-0.624,5.578-0.589c3.643,0.076,6.25,1.269,7.58,3.557c1.926,3.317,0.39,7.985-4.195,13.005
	C46.576,31.528,48.113,36.195,46.189,39.514z M18.188,38.916c1.649,6.654,4.134,9.134,5.313,9.134c1.036,0,3.08-1.917,4.68-6.897
	c-1.874-0.634-3.801-1.409-5.762-2.329c-1.602-0.751-3.175-1.569-4.677-2.435c-0.023-0.013-0.047-0.028-0.071-0.041
	C17.832,37.216,17.984,38.092,18.188,38.916z M5.185,37.045c0.472,0.813,2.928,1.554,7.616,0.61c-0.38-1.967-0.693-3.991-0.86-6.12
	c-0.118-1.501-0.177-3.052-0.187-4.606c-0.52,0.453-1.025,0.907-1.497,1.36C5.508,32.854,4.626,36.08,5.185,37.045z M15.058,15.905
	c-6.173-1.714-9.33-0.866-9.876,0.072c-0.485,0.837,0.127,3.398,3.434,7.062c1.341-1.152,2.8-2.29,4.378-3.394
	c1.518-1.059,3.065-2.04,4.606-2.93C16.738,16.414,15.886,16.135,15.058,15.905z M28.813,14.104C27.164,7.45,24.679,4.97,23.5,4.97
	c-1.036,0-3.081,1.918-4.68,6.898c1.874,0.635,3.801,1.407,5.762,2.329c1.602,0.751,3.175,1.57,4.677,2.433
	c0.023,0.014,0.048,0.029,0.071,0.042C29.169,15.805,29.016,14.927,28.813,14.104z M30.083,23.028
	c-1.117-0.745-2.239-1.459-3.359-2.103c-1.039-0.597-2.126-1.161-3.224-1.706c-1.099,0.545-2.186,1.109-3.225,1.706
	c-1.12,0.644-2.242,1.358-3.359,2.104c-0.067,1.151-0.134,2.305-0.134,3.481c0,1.177,0.067,2.333,0.134,3.482
	c1.117,0.744,2.239,1.458,3.359,2.101c1.041,0.599,2.126,1.165,3.225,1.707c1.098-0.542,2.185-1.107,3.224-1.706
	c1.12-0.644,2.242-1.358,3.359-2.102c0.067-1.152,0.134-2.306,0.134-3.482C30.218,25.334,30.15,24.18,30.083,23.028z M29.401,36.306
	c0.862,0.302,1.713,0.581,2.541,0.811c6.17,1.712,9.329,0.862,9.876-0.071c0.485-0.839-0.13-3.4-3.433-7.063
	c-1.343,1.151-2.802,2.289-4.38,3.395C32.49,34.434,30.94,35.416,29.401,36.306z M41.815,15.976
	c-0.476-0.813-2.929-1.555-7.616-0.611c0.38,1.967,0.693,3.993,0.86,6.121c0.118,1.501,0.177,3.05,0.187,4.605
	c0.52-0.452,1.024-0.906,1.497-1.36C41.493,20.167,42.374,16.939,41.815,15.976z M23.5,29.825c-1.854,0-3.359-1.486-3.359-3.314
	c0-1.831,1.505-3.315,3.359-3.315s3.358,1.484,3.358,3.315C26.859,28.339,25.354,29.825,23.5,29.825z"/>
</svg>
