<?xml version="1.0" encoding="utf-8"?>
<!-- Generator: Adobe Illustrator 16.0.0, SVG Export Plug-In . SVG Version: 6.00 Build 0)  -->
<!DOCTYPE svg PUBLIC "-//W3C//DTD SVG 1.1//EN" "http://www.w3.org/Graphics/SVG/1.1/DTD/svg11.dtd">
<svg version="1.1" id="Layer_1" xmlns="http://www.w3.org/2000/svg" xmlns:xlink="http://www.w3.org/1999/xlink" x="0px" y="0px"
	 width="19px" height="18px" viewBox="0 0 19 18" enable-background="new 0 0 19 18" xml:space="preserve">
<path fill-rule="evenodd" clip-rule="evenodd" fill="none" d="M18.851,5.206l-3.257,7.312c-0.258,0.579-0.824,0.981-1.479,0.981H3.8
	c-0.899,0-1.629-0.755-1.629-1.688v-8.37L0.239,1.44C0.091,1.287,0,1.076,0,0.844C0,0.377,0.365,0,0.814,0
	C1.039,0,1.243,0.094,1.39,0.247l2.476,2.565h13.506C18.271,2.812,19,3.567,19,4.5C19,4.752,18.947,4.991,18.851,5.206z M3.8,11.812
	h10.314l2.005-4.5H3.8V11.812z M17.372,4.5H3.8v1.125h13.071L17.372,4.5L17.372,4.5z M4.343,14.625c0.899,0,1.628,0.755,1.628,1.688
	C5.971,17.244,5.242,18,4.343,18c-0.9,0-1.629-0.756-1.629-1.688C2.714,15.38,3.443,14.625,4.343,14.625z M13.029,14.625
	c0.899,0,1.628,0.755,1.628,1.688c0,0.932-0.729,1.688-1.628,1.688c-0.899,0-1.629-0.756-1.629-1.688
	C11.4,15.38,12.13,14.625,13.029,14.625z"/>
</svg>
