<?xml version="1.0" encoding="utf-8"?>
<!-- Generator: Adobe Illustrator 16.0.0, SVG Export Plug-In . SVG Version: 6.00 Build 0)  -->
<!DOCTYPE svg PUBLIC "-//W3C//DTD SVG 1.1//EN" "http://www.w3.org/Graphics/SVG/1.1/DTD/svg11.dtd">
<svg version="1.1" id="Layer_1" xmlns="http://www.w3.org/2000/svg" xmlns:xlink="http://www.w3.org/1999/xlink" x="0px" y="0px"
	 width="32px" height="32px" viewBox="0 0 32 32" enable-background="new 0 0 32 32" xml:space="preserve">
<path fill="none" d="M31.651,8.651l-8.303-8.303C23.114,0.114,22.807,0,22.5,0c-0.307,0-0.614,0.114-0.848,0.348L0,22v10h10
	l21.651-21.652C31.886,10.114,32,9.806,32,9.5C32,9.192,31.886,8.885,31.651,8.651z M4.561,21.439L18.439,7.56l6,6L10.561,27.439
	L4.561,21.439z M3,24.121L7.879,29H3V24.121z M26.561,11.439l-6-6L22.5,3.5l6,6L26.561,11.439z"/>
</svg>
