<?xml version="1.0" encoding="utf-8"?>
<!-- Generator: Adobe Illustrator 16.0.0, SVG Export Plug-In . SVG Version: 6.00 Build 0)  -->
<!DOCTYPE svg PUBLIC "-//W3C//DTD SVG 1.1//EN" "http://www.w3.org/Graphics/SVG/1.1/DTD/svg11.dtd">
<svg version="1.1" id="Layer_1" xmlns="http://www.w3.org/2000/svg" xmlns:xlink="http://www.w3.org/1999/xlink" x="0px" y="0px"
	 width="66px" height="52px" viewBox="0 0 66 52" enable-background="new 0 0 66 52" xml:space="preserve">
<path fill="white" d="M63.972,15.248L34.639,0.391C34.145,0.14,33.589,0,33,0c-0.589,0-1.144,0.14-1.638,0.391L2.029,15.248
	C0.826,15.856,0,17.117,0,18.571c0,1.455,0.826,2.715,2.029,3.325l1.638,0.829v13.075C2.575,36.445,1.833,37.629,1.833,39
	c0,2.052,1.642,3.715,3.667,3.715c2.025,0,3.667-1.663,3.667-3.715c0-1.371-0.741-2.555-1.833-3.199V24.584l5.5,2.784V39
	c0,7.181,9.029,13,20.167,13c11.138,0,20.167-5.819,20.167-13V27.368l10.805-5.472c1.203-0.61,2.028-1.87,2.028-3.325
	C66,17.117,65.175,15.856,63.972,15.248z M47.667,39c0,3.436-6.406,7.429-14.667,7.429c-8.261,0-14.667-3.993-14.667-7.429v-8.847
	l13.029,6.6c0.494,0.251,1.049,0.39,1.638,0.39c0.589,0,1.145-0.139,1.639-0.39l13.028-6.6V39z M33,31.354L7.763,18.571L33,5.79
	l25.237,12.781L33,31.354z"/>
</svg>
