<?xml version="1.0" encoding="utf-8"?>
<!-- Generator: Adobe Illustrator 16.0.0, SVG Export Plug-In . SVG Version: 6.00 Build 0)  -->
<!DOCTYPE svg PUBLIC "-//W3C//DTD SVG 1.1//EN" "http://www.w3.org/Graphics/SVG/1.1/DTD/svg11.dtd">
<svg version="1.1" id="Layer_1" xmlns="http://www.w3.org/2000/svg" xmlns:xlink="http://www.w3.org/1999/xlink" x="0px" y="0px"
	 width="32px" height="27.948px" viewBox="0 0 32 27.948" enable-background="new 0 0 32 27.948" xml:space="preserve">
<path fill="none" d="M24,4.99V1.996C24,0.893,23.104,0,22,0H10C8.896,0,8,0.893,8,1.996V4.99H2c-1.104,0-2,0.895-2,1.997v18.964
	c0,1.103,0.896,1.997,2,1.997h28c1.104,0,2-0.895,2-1.997V6.987c0-1.102-0.896-1.997-2-1.997H24z M11,2.994h10V4.99H11V2.994z
	 M29,7.985v5.988H19v-0.998h-6v0.998H3V7.985H29z M3,24.954v-7.985h10v0.998h6v-0.998h10v7.985H3z"/>
</svg>
