<?xml version="1.0" encoding="utf-8"?>
<!-- Generator: Adobe Illustrator 16.0.0, SVG Export Plug-In . SVG Version: 6.00 Build 0)  -->
<!DOCTYPE svg PUBLIC "-//W3C//DTD SVG 1.1//EN" "http://www.w3.org/Graphics/SVG/1.1/DTD/svg11.dtd">
<svg version="1.1" id="Layer_1" xmlns="http://www.w3.org/2000/svg" xmlns:xlink="http://www.w3.org/1999/xlink" x="0px" y="0px"
	 width="53px" height="53px" viewBox="0 0 53 53" enable-background="new 0 0 53 53" xml:space="preserve">
<path fill-rule="evenodd" clip-rule="evenodd" fill="#FFFFFF" d="M47.879,27.323c-2.493,3.83-5.983,7.008-9.884,9.576
	c-0.377,6.21-3.523,11.99-8.64,15.64C28.927,52.844,28.42,53,27.91,53c-0.321,0-0.644-0.061-0.95-0.188
	c-0.792-0.329-1.361-1.04-1.503-1.886c-0.378-2.235-1.381-4.712-2.859-7.215c-1.656,0.452-3.264,0.819-4.77,1.081
	c-0.142,0.026-0.285,0.037-0.427,0.037c-0.654,0-1.288-0.257-1.759-0.729l-6.75-6.749C8.32,36.78,8.062,35.964,8.2,35.167
	c0.262-1.504,0.629-3.111,1.081-4.767c-2.5-1.477-4.977-2.48-7.212-2.858c-0.846-0.143-1.558-0.711-1.885-1.503
	c-0.328-0.792-0.225-1.697,0.273-2.395c3.65-5.118,9.431-8.264,15.639-8.643c2.567-3.901,5.746-7.392,9.575-9.885
	c7.263-4.729,15.895-5.12,24.841-5.12C51.886-0.003,53,1.109,53,2.483C53,11.074,52.604,20.066,47.879,27.323z M28.89,47.542
	c2.252-2.192,3.823-4.98,4.551-8.012c-2.239,1.146-4.528,2.113-6.786,2.911C27.605,44.158,28.366,45.872,28.89,47.542z
	 M5.456,24.108c1.667,0.523,3.381,1.285,5.098,2.232c0.799-2.256,1.765-4.545,2.91-6.785C10.434,20.284,7.648,21.855,5.456,24.108z
	 M28.386,9.285c-7.92,5.158-13.168,16.279-15.044,25.479l4.891,4.889c9.199-1.876,20.32-7.124,25.478-15.045
	c3.575-5.492,4.208-12.367,4.3-19.622C40.753,5.079,33.878,5.71,28.386,9.285z M35.583,21.561c-2.291,0-4.147-1.856-4.147-4.147
	c0-2.291,1.856-4.147,4.147-4.147c2.291,0,4.147,1.856,4.147,4.147C39.729,19.705,37.873,21.561,35.583,21.561z M3.414,44.409
	c0.516-1.702,2.098-2.942,3.969-2.942c2.291,0,4.147,1.856,4.147,4.148c0,1.87-1.239,3.453-2.942,3.968l-5.94,1.802
	C2.571,51.407,2.49,51.42,2.406,51.42c-0.458,0-0.829-0.371-0.829-0.829c0-0.085,0.012-0.166,0.036-0.242L3.414,44.409z"/>
</svg>
